<svg width="25" height="24" viewBox="0 0 25 24" fill="none" xmlns="http://www.w3.org/2000/svg">
<path fill-rule="evenodd" clip-rule="evenodd" d="M17.9455 3.7529C19.5302 3.19356 21.0564 4.71974 20.4971 6.30452L15.9202 19.2724C15.3503 20.887 13.1472 21.0857 12.2977 19.5991L9.51705 14.7329L4.65091 11.9523C3.16429 11.1028 3.36294 8.89967 4.97754 8.32981L17.9455 3.7529ZM11.4972 14.167L13.8174 18.2274C13.9023 18.376 14.1226 18.3562 14.1796 18.1947L18.4719 6.03322C18.5278 5.87474 18.3752 5.72213 18.2167 5.77806L6.05526 10.0703C5.8938 10.1273 5.87393 10.3476 6.0226 10.4326L10.083 12.7528L13.0429 9.79289C13.4334 9.40236 14.0666 9.40236 14.4571 9.79289C14.8476 10.1834 14.8476 10.8166 14.4571 11.2071L11.4972 14.167Z" fill="white"/>
</svg>
