<svg width="33" height="32" viewBox="0 0 33 32" fill="none" xmlns="http://www.w3.org/2000/svg">
<defs>
    <filter id="shadow" x="-20%" y="-20%" width="140%" height="140%">
      <feGaussianBlur in="SourceAlpha" stdDeviation="2" />
      <feOffset dx="2" dy="2" result="offsetblur" />
      <feMerge>
        <feMergeNode in="offsetblur" />
        <feMergeNode in="SourceGraphic" />
      </feMerge>
    </filter>
  </defs>
<path d="M19.3335 5.00021H16.6669C12.9332 5.00021 11.0664 5.00021 9.64028 5.72684C8.38586 6.36599 7.36599 7.38586 6.72684 8.64028C6.00021 10.0664 6.00021 11.9332 6.00021 15.6669V15.6669C6.00021 19.4006 6.00021 21.2674 6.72684 22.6935C7.36599 23.9479 8.38586 24.9678 9.64028 25.6069C11.0664 26.3335 12.9332 26.3335 16.6669 26.3335V26.3335C20.4006 26.3335 22.2674 26.3335 23.6935 25.6069C24.9479 24.9678 25.9678 23.9479 26.6069 22.6935C27.3335 21.2674 27.3335 19.4006 27.3335 15.6669V13.0002" stroke="#000000" stroke-width="2.66667" stroke-linecap="round" stroke-linejoin="round"/>
<path fill-rule="evenodd" clip-rule="evenodd" d="M15.9677 13.8798C16.139 13.5793 16.3861 13.3275 16.8803 12.8241L21.0571 8.56913C21.5012 8.11677 21.7232 7.89059 22.0011 7.8893C22.2791 7.88801 22.5032 8.11212 22.9514 8.56035L23.6743 9.2832C24.115 9.72389 24.3353 9.94423 24.3366 10.2186C24.3379 10.4929 24.1196 10.7153 23.683 11.16L19.5054 15.4158C19.0142 15.9162 18.7686 16.1664 18.4738 16.3425C18.3665 16.4066 18.2549 16.463 18.1398 16.5114C17.8232 16.6445 17.4761 16.6941 16.782 16.7933C16.2028 16.876 15.9133 16.9174 15.7182 16.7879C15.6498 16.7425 15.5912 16.6839 15.5458 16.6156C15.4163 16.4205 15.4583 16.1271 15.5421 15.5405C15.643 14.834 15.6934 14.4808 15.8282 14.1621C15.8691 14.0653 15.9156 13.9711 15.9677 13.8798ZM23.251 7.12084C23.0402 6.91009 23.0402 6.5684 23.251 6.35765L23.3041 6.30449C24.0245 5.58416 25.1923 5.58416 25.9127 6.30449C26.633 7.02482 26.633 8.19271 25.9127 8.91304L25.8595 8.9662C25.6488 9.17695 25.3071 9.17695 25.0963 8.9662L23.251 7.12084Z" fill="#000000"/>
</svg>
