<svg width="32" height="32" viewBox="0 0 32 32" fill="none" xmlns="http://www.w3.org/2000/svg">
<path fill-rule="evenodd" clip-rule="evenodd" d="M4.36355 15.2834C3.87247 15.4222 3.32367 15.2711 2.97588 14.8538C2.50446 14.2881 2.58089 13.4473 3.1466 12.9759L12.586 5.10971C14.5639 3.46148 17.4368 3.46148 19.4147 5.1097L28.8541 12.9759C29.4198 13.4473 29.4962 14.2881 29.0248 14.8538C28.6769 15.2712 28.1279 15.4222 27.6367 15.2833L25.9508 23.7129C25.4522 26.2059 23.2633 28.0004 20.721 28.0004H11.2793C8.73695 28.0004 6.54805 26.2059 6.04945 23.7129L4.36355 15.2834ZM14.2441 7.30828C15.2495 6.42854 16.7508 6.42854 17.7562 7.30828L25.2081 13.8288L23.3359 23.1899C23.0866 24.4364 21.9921 25.3337 20.721 25.3337H11.2793C10.0081 25.3337 8.91367 24.4364 8.66437 23.1899L6.79213 13.8288L14.2441 7.30828Z" fill="#B7B7B8"/>
<path d="M20.0002 18.6669C19.3335 20.0003 18.2093 21.3336 16.0001 21.3336C13.7909 21.3336 12.6667 20.0003 12.0001 18.6669" stroke="#B7B7B8" stroke-width="2.6667" stroke-linecap="round"/>
</svg>
