<svg width="781" height="204" viewBox="0 0 781 204" fill="none" xmlns="http://www.w3.org/2000/svg">
<path d="M0.000143564 28.0961C0.000143564 17.5479 0.000145618 12.2738 2.28303 8.35267C3.74694 5.83824 5.83838 3.7468 8.35281 2.28288C12.2739 2.00403e-06 17.548 0 28.0963 0H46.1414C67.1583 0 77.6667 3.67405e-06 81.6176 2.32902C89.6944 7.09028 92.3155 17.5384 87.4426 25.5483C85.0589 29.4665 75.7949 34.4268 57.2667 44.3473C55.5237 45.2806 54.6522 45.7473 53.8547 46.3011C52.2708 47.401 50.888 48.7651 49.7667 50.3339C49.2021 51.1238 48.7181 51.999 47.7501 53.7494C35.0473 76.7189 28.6959 88.2036 23.3094 90.4612C16.35 93.3781 8.29972 91.3003 3.62122 85.3798C0.000143113 80.7974 0.000143564 67.836 0.000143564 41.9133V28.0961Z" fill="white"/>
<path d="M198 28.0961C198 17.5479 198 12.2738 195.717 8.35267C194.253 5.83824 192.162 3.7468 189.647 2.28288C185.726 2.00403e-06 180.452 0 169.904 0H151.859C130.842 0 120.334 3.67405e-06 116.383 2.32902C108.306 7.09028 105.685 17.5384 110.558 25.5483C112.941 29.4665 122.205 34.4268 140.734 44.3473C142.477 45.2806 143.348 45.7473 144.146 46.3011C145.729 47.401 147.112 48.7651 148.234 50.3339C148.798 51.1238 149.282 51.999 150.25 53.7494C162.953 76.7189 169.304 88.2036 174.691 90.4612C181.65 93.3781 189.701 91.3003 194.379 85.3798C198 80.7974 198 67.836 198 41.9133V28.0961Z" fill="white"/>
<path d="M89.8941 139.478C89.8941 128.93 89.8941 123.656 87.6113 119.735C86.1473 117.22 84.0559 115.129 81.5415 113.665C77.6204 111.382 72.3462 111.382 61.798 111.382H43.7529C22.736 111.382 12.2276 111.382 8.2767 113.711C0.199879 118.472 -2.42122 128.92 2.45172 136.93C4.83536 140.848 14.0994 145.809 32.6275 155.729C34.3706 156.663 35.2421 157.129 36.0396 157.683C37.6235 158.783 39.0063 160.147 40.1276 161.716C40.6922 162.506 41.1762 163.381 42.1442 165.131C54.847 188.101 61.1984 199.585 66.5849 201.843C73.5443 204.76 81.5946 202.682 86.2731 196.762C89.8941 192.179 89.8941 179.218 89.8941 153.295V139.478Z" fill="white"/>
<path d="M198 175.055C198 185.603 198 190.877 195.717 194.798C194.253 197.313 192.162 199.404 189.647 200.868C185.726 203.151 180.452 203.151 169.904 203.151H151.859C130.842 203.151 120.334 203.151 116.383 200.822C108.306 196.061 105.685 185.612 110.558 177.603C112.941 173.684 122.205 168.724 140.734 158.804C142.477 157.87 143.348 157.404 144.146 156.85C145.729 155.75 147.112 154.386 148.234 152.817C148.798 152.027 149.282 151.152 150.25 149.401C162.953 126.432 169.304 114.947 174.691 112.69C181.65 109.773 189.701 111.851 194.379 117.771C198 122.354 198 135.315 198 161.238V175.055Z" fill="white"/>
<path d="M281.453 50.9491C270.229 50.9491 262.766 44.093 262.766 34.3246H272.534C272.534 39.1178 275.871 42.5155 281.393 42.5155C285.397 42.5155 288.491 40.6953 288.491 37.0549C288.491 33.1111 284.851 31.655 279.694 29.5314C270.835 25.891 263.797 23.4034 263.797 14.7272C263.797 5.86887 271.442 1.07568 280.179 1.07568C290.19 1.07568 296.197 7.44637 296.197 16.3653H286.793C286.793 12.3002 284.062 9.56994 279.997 9.56994C276.235 9.56994 273.566 11.9362 273.566 14.7272C273.566 18.3676 277.934 19.5203 284.669 22.0686C292.617 25.0416 298.32 28.318 298.32 36.6302C298.32 45.7919 291.161 50.9491 281.453 50.9491Z" fill="white"/>
<path d="M323.197 50.9491C311.002 50.9491 302.508 42.7582 302.508 30.5629C302.508 18.4282 311.002 10.1767 323.197 10.1767C335.393 10.1767 343.887 18.4282 343.887 30.5629C343.887 42.7582 335.393 50.9491 323.197 50.9491ZM312.216 30.5629C312.216 37.6616 316.766 42.3942 323.197 42.3942C329.689 42.3942 334.24 37.6616 334.24 30.5629C334.24 23.5248 329.689 18.7316 323.197 18.7316C316.766 18.7316 312.216 23.5248 312.216 30.5629Z" fill="white"/>
<path d="M350.483 50.2817V1.74309H359.948V50.2817H350.483Z" fill="white"/>
<path d="M385.456 50.9491C374.777 50.9491 366.586 42.6975 366.586 30.5022C366.586 18.3676 374.777 10.1767 385.456 10.1767C390.734 10.1767 395.103 12.2396 398.076 15.7586V10.8441H407.419V50.2817H398.076V45.3065C395.103 48.8862 390.734 50.9491 385.456 50.9491ZM376.233 30.5022C376.233 37.601 380.784 42.3335 387.215 42.3335C393.647 42.3335 398.197 37.601 398.197 30.5022C398.197 23.4641 393.647 18.7923 387.215 18.7923C380.784 18.7923 376.233 23.4641 376.233 30.5022Z" fill="white"/>
<path d="M416.458 50.2817V10.8441H425.862V15.88C426.833 13.5137 430.473 10.1767 436.723 10.1767C445.702 10.1767 452.619 17.0934 452.619 27.3472V50.2817H443.154V27.5292C443.154 22.19 439.696 18.6103 434.538 18.6103C429.381 18.6103 425.923 22.19 425.923 27.5292V50.2817H416.458Z" fill="white"/>
<path d="M476.908 50.9491C466.23 50.9491 458.039 42.6975 458.039 30.5022C458.039 18.3676 466.23 10.1767 476.908 10.1767C482.187 10.1767 486.555 12.2396 489.528 15.7586V10.8441H498.872V50.2817H489.528V45.3065C486.555 48.8862 482.187 50.9491 476.908 50.9491ZM467.686 30.5022C467.686 37.601 472.236 42.3335 478.668 42.3335C485.099 42.3335 489.65 37.601 489.65 30.5022C489.65 23.4641 485.099 18.7923 478.668 18.7923C472.236 18.7923 467.686 23.4641 467.686 30.5022Z" fill="white"/>
<path d="M303.457 177.347C280.429 177.347 262.766 159.553 262.766 133.254C262.766 107.086 280.429 89.4232 303.457 89.4232C314.84 89.4232 324.26 93.8717 330.671 101.46V90.8625H350.82V175.907H330.671V165.179C324.26 172.898 314.84 177.347 303.457 177.347ZM283.569 133.254C283.569 148.562 293.382 158.768 307.251 158.768C321.12 158.768 330.933 148.562 330.933 133.254C330.933 118.077 321.12 108.002 307.251 108.002C293.382 108.002 283.569 118.077 283.569 133.254Z" fill="white"/>
<path d="M370.311 202.075V90.8625H390.329V101.46C396.74 93.8717 406.161 89.4232 417.544 89.4232C440.571 89.4232 458.235 107.217 458.235 133.385C458.235 159.684 440.571 177.347 417.544 177.347C406.292 177.347 397.002 173.029 390.591 165.571V202.075H370.311ZM390.068 133.385C390.068 148.693 399.881 158.768 413.749 158.768C427.618 158.768 437.431 148.693 437.431 133.385C437.431 118.208 427.618 108.002 413.749 108.002C399.881 108.002 390.068 118.208 390.068 133.385Z" fill="white"/>
<path d="M472.495 202.075V90.8625H492.513V101.46C498.924 93.8717 508.345 89.4232 519.728 89.4232C542.755 89.4232 560.418 107.217 560.418 133.385C560.418 159.684 542.755 177.347 519.728 177.347C508.475 177.347 499.186 173.029 492.775 165.571V202.075H472.495ZM492.251 133.385C492.251 148.693 502.064 158.768 515.933 158.768C529.802 158.768 539.615 148.693 539.615 133.385C539.615 118.208 529.802 108.002 515.933 108.002C502.064 108.002 492.251 118.208 492.251 133.385Z" fill="white"/>
<path d="M602.099 175.907V71.2367H622.509V124.488L651.948 90.8625H677.331L641.612 131.161L679.947 175.907H654.434L622.509 138.488V175.907H602.099Z" fill="white"/>
<path d="M688.95 175.907V102.115H709.361V175.907H688.95ZM688.95 89.5541V71.2367H709.361V89.5541H688.95Z" fill="white"/>
<path d="M736.759 175.907V109.18H721.058V90.8625H736.759V71.2367H757.17V90.8625H772.74V109.18H757.17V175.907H736.759Z" fill="white"/>
</svg>
