<svg width="93" height="95" viewBox="0 0 93 95" fill="none" xmlns="http://www.w3.org/2000/svg">
	<path d="M1.00934e-05 13.1387C1.00934e-05 8.20596 1.10865e-05 5.73962 1.07227 3.90598C1.75987 2.73015 2.74221 1.75212 3.92323 1.06755C5.76496 8.91938e-07 8.2422 0 13.1967 0H21.6724C31.544 0 36.4798 1.67238e-06 38.3355 1.08912C42.1291 3.31565 43.3603 8.20153 41.0714 11.9472C39.9519 13.7795 35.6006 16.0991 26.898 20.7383C26.0793 21.1747 25.6699 21.3929 25.2953 21.6519C24.5514 22.1662 23.9019 22.8042 23.3752 23.5378C23.11 23.9072 22.8827 24.3164 22.428 25.135C16.4615 35.8763 13.4783 41.2469 10.9483 42.3026C7.6795 43.6666 3.89829 42.695 1.70082 39.9264C9.85463e-06 37.7835 1.00934e-05 31.7223 1.00934e-05 19.6V13.1387Z" fill="white" />
	<path d="M93 13.1387C93 8.20596 93 5.73962 91.9277 3.90598C91.2401 2.73015 90.2578 1.75212 89.0768 1.06755C87.235 8.91938e-07 84.7578 0 79.8033 0H71.3276C61.456 0 56.5202 1.67238e-06 54.6645 1.08912C50.8709 3.31565 49.6398 8.20153 51.9286 11.9472C53.0481 13.7795 57.3995 16.0991 66.1021 20.7383C66.9208 21.1747 67.3301 21.3929 67.7047 21.6519C68.4486 22.1662 69.0981 22.8042 69.6248 23.5378C69.89 23.9072 70.1173 24.3164 70.572 25.135C76.5385 35.8763 79.5217 41.2469 82.0517 42.3026C85.3205 43.6666 89.1017 42.695 91.2992 39.9264C93 37.7835 93 31.7223 93 19.6V13.1387Z" fill="white" />
	<path d="M42.2229 65.2245C42.2229 60.2918 42.2229 57.8254 41.1507 55.9918C40.4631 54.816 39.4807 53.8379 38.2997 53.1534C36.458 52.0858 33.9808 52.0858 29.0263 52.0858H20.5505C10.679 52.0858 5.74319 52.0858 3.88748 53.1749C0.0938251 55.4015 -1.1373 60.2873 1.15151 64.033C2.2711 65.8653 6.6224 68.1849 15.325 72.8241C16.1437 73.2605 16.5531 73.4787 16.9276 73.7377C17.6716 74.252 18.3211 74.89 18.8478 75.6236C19.1129 75.993 19.3403 76.4023 19.7949 77.2208C25.7614 87.9621 28.7446 93.3327 31.2747 94.3884C34.5435 95.7524 38.3247 94.7808 40.5221 92.0122C42.2229 89.8693 42.2229 83.8081 42.2229 71.6858V65.2245Z" fill="white" />
	<path d="M93 81.8613C93 86.794 93 89.2604 91.9277 91.094C91.2401 92.2698 90.2578 93.2479 89.0768 93.9324C87.235 95 84.7578 95 79.8033 95H71.3276C61.456 95 56.5202 95 54.6645 93.9109C50.8709 91.6843 49.6398 86.7985 51.9286 83.0527C53.0481 81.2205 57.3995 78.9009 66.1021 74.2617C66.9208 73.8253 67.3301 73.6071 67.7047 73.3481C68.4486 72.8338 69.0981 72.1958 69.6248 71.4622C69.89 71.0928 70.1173 70.6835 70.572 69.865C76.5385 59.1237 79.5217 53.7531 82.0517 52.6974C85.3205 51.3334 89.1017 52.305 91.2992 55.0736C93 57.2165 93 63.2777 93 75.4V81.8613Z" fill="white" />
</svg>
