<svg width="199" height="204" viewBox="0 0 199 204" fill="none" xmlns="http://www.w3.org/2000/svg">
<path d="M0.947043 28.7815C0.947043 18.2333 0.947045 12.9592 3.22993 9.0381C4.69384 6.52367 6.78528 4.43222 9.29971 2.96831C13.2208 0.685427 18.4949 0.685425 29.0432 0.685425H47.0883C68.1052 0.685425 78.6136 0.685428 82.5645 3.01444C90.6413 7.7757 93.2624 18.2238 88.3895 26.2338C86.0058 30.1519 76.7418 35.1122 58.2136 45.0328C56.4706 45.966 55.5991 46.4327 54.8016 46.9865C53.2177 48.0864 51.8349 49.4506 50.7136 51.0194C50.149 51.8093 49.665 52.6845 48.697 54.4348C35.9942 77.4043 29.6428 88.889 24.2563 91.1466C17.2969 94.0635 9.24662 91.9858 4.56812 86.0652C0.947043 81.4828 0.947043 68.5214 0.947043 42.5987V28.7815Z" fill="black"/>
<path d="M198.947 28.7815C198.947 18.2333 198.947 12.9592 196.664 9.0381C195.2 6.52367 193.109 4.43222 190.594 2.96831C186.673 0.685427 181.399 0.685425 170.851 0.685425H152.806C131.789 0.685425 121.28 0.685428 117.33 3.01444C109.253 7.7757 106.632 18.2238 111.505 26.2338C113.888 30.1519 123.152 35.1122 141.68 45.0328C143.423 45.966 144.295 46.4327 145.092 46.9865C146.676 48.0864 148.059 49.4506 149.18 51.0194C149.745 51.8093 150.229 52.6845 151.197 54.4348C163.9 77.4043 170.251 88.889 175.638 91.1466C182.597 94.0635 190.647 91.9858 195.326 86.0652C198.947 81.4828 198.947 68.5214 198.947 42.5987V28.7815Z" fill="black"/>
<path d="M90.841 140.163C90.841 129.615 90.841 124.341 88.5582 120.42C87.0942 117.906 85.0028 115.814 82.4884 114.35C78.5673 112.067 73.2931 112.067 62.7449 112.067H44.6998C23.6829 112.067 13.1745 112.067 9.2236 114.396C1.14678 119.158 -1.47432 129.606 3.39862 137.616C5.78226 141.534 15.0463 146.494 33.5744 156.415C35.3175 157.348 36.189 157.815 36.9865 158.368C38.5704 159.468 39.9532 160.832 41.0745 162.401C41.6391 163.191 42.1231 164.066 43.0911 165.817C55.7939 188.786 62.1453 200.271 67.5318 202.529C74.4912 205.445 82.5415 203.368 87.22 197.447C90.841 192.865 90.841 179.903 90.841 153.981V140.163Z" fill="black"/>
<path d="M198.947 175.74C198.947 186.288 198.947 191.563 196.664 195.484C195.2 197.998 193.109 200.09 190.594 201.553C186.673 203.836 181.399 203.836 170.851 203.836H152.806C131.789 203.836 121.28 203.836 117.33 201.507C109.253 196.746 106.632 186.298 111.505 178.288C113.888 174.37 123.152 169.41 141.68 159.489C143.423 158.556 144.295 158.089 145.092 157.535C146.676 156.435 148.059 155.071 149.18 153.502C149.745 152.712 150.229 151.837 151.197 150.087C163.9 127.117 170.251 115.633 175.638 113.375C182.597 110.458 190.647 112.536 195.326 118.457C198.947 123.039 198.947 136 198.947 161.923V175.74Z" fill="black"/>
</svg>
