<svg width="782" height="204" viewBox="0 0 782 204" fill="none" xmlns="http://www.w3.org/2000/svg">
<path d="M0.947043 28.7815C0.947043 18.2333 0.947045 12.9592 3.22993 9.0381C4.69384 6.52367 6.78528 4.43222 9.29971 2.96831C13.2208 0.685427 18.4949 0.685425 29.0432 0.685425H47.0883C68.1052 0.685425 78.6136 0.685428 82.5645 3.01444C90.6413 7.7757 93.2624 18.2238 88.3895 26.2338C86.0058 30.1519 76.7418 35.1122 58.2136 45.0328C56.4706 45.966 55.5991 46.4327 54.8016 46.9865C53.2177 48.0864 51.8349 49.4506 50.7136 51.0194C50.149 51.8093 49.665 52.6845 48.697 54.4348C35.9942 77.4043 29.6428 88.889 24.2563 91.1466C17.2969 94.0635 9.24662 91.9858 4.56812 86.0652C0.947043 81.4828 0.947043 68.5214 0.947043 42.5987V28.7815Z" fill="black"/>
<path d="M198.947 28.7815C198.947 18.2333 198.947 12.9592 196.664 9.0381C195.2 6.52367 193.109 4.43222 190.594 2.96831C186.673 0.685427 181.399 0.685425 170.851 0.685425H152.806C131.789 0.685425 121.28 0.685428 117.33 3.01444C109.253 7.7757 106.632 18.2238 111.505 26.2338C113.888 30.1519 123.152 35.1122 141.68 45.0328C143.423 45.966 144.295 46.4327 145.092 46.9865C146.676 48.0864 148.059 49.4506 149.18 51.0194C149.745 51.8093 150.229 52.6845 151.197 54.4348C163.9 77.4043 170.251 88.889 175.638 91.1466C182.597 94.0635 190.647 91.9858 195.326 86.0652C198.947 81.4828 198.947 68.5214 198.947 42.5987V28.7815Z" fill="black"/>
<path d="M90.841 140.163C90.841 129.615 90.841 124.341 88.5582 120.42C87.0942 117.906 85.0028 115.814 82.4884 114.35C78.5673 112.067 73.2931 112.067 62.7449 112.067H44.6998C23.6829 112.067 13.1745 112.067 9.2236 114.396C1.14678 119.158 -1.47432 129.606 3.39862 137.616C5.78226 141.534 15.0463 146.494 33.5744 156.415C35.3175 157.348 36.189 157.815 36.9865 158.368C38.5704 159.468 39.9532 160.832 41.0745 162.401C41.6391 163.191 42.1231 164.066 43.0911 165.817C55.7939 188.786 62.1453 200.271 67.5318 202.529C74.4912 205.445 82.5415 203.368 87.22 197.447C90.841 192.865 90.841 179.903 90.841 153.981V140.163Z" fill="black"/>
<path d="M198.947 175.74C198.947 186.288 198.947 191.563 196.664 195.484C195.2 197.998 193.109 200.09 190.594 201.553C186.673 203.836 181.399 203.836 170.851 203.836H152.806C131.789 203.836 121.28 203.836 117.33 201.507C109.253 196.746 106.632 186.298 111.505 178.288C113.888 174.37 123.152 169.41 141.68 159.489C143.423 158.556 144.295 158.089 145.092 157.535C146.676 156.435 148.059 155.071 149.18 153.502C149.745 152.712 150.229 151.837 151.197 150.087C163.9 127.117 170.251 115.633 175.638 113.375C182.597 110.458 190.647 112.536 195.326 118.457C198.947 123.039 198.947 136 198.947 161.923V175.74Z" fill="black"/>
<path d="M282.4 51.6346C271.176 51.6346 263.713 44.7786 263.713 35.0102H273.481C273.481 39.8033 276.818 43.201 282.34 43.201C286.344 43.201 289.438 41.3809 289.438 37.7405C289.438 33.7967 285.798 32.3405 280.641 30.217C271.782 26.5766 264.744 24.089 264.744 15.4127C264.744 6.55442 272.389 1.76123 281.126 1.76123C291.137 1.76123 297.144 8.13192 297.144 17.0509H287.739C287.739 12.9858 285.009 10.2555 280.944 10.2555C277.182 10.2555 274.513 12.6217 274.513 15.4127C274.513 19.0531 278.881 20.2059 285.616 22.7542C293.564 25.7272 299.267 29.0035 299.267 37.3157C299.267 46.4774 292.108 51.6346 282.4 51.6346Z" fill="black"/>
<path d="M324.144 51.6346C311.949 51.6346 303.455 43.4437 303.455 31.2484C303.455 19.1138 311.949 10.8622 324.144 10.8622C336.34 10.8622 344.834 19.1138 344.834 31.2484C344.834 43.4437 336.34 51.6346 324.144 51.6346ZM313.163 31.2484C313.163 38.3472 317.713 43.0797 324.144 43.0797C330.636 43.0797 335.187 38.3472 335.187 31.2484C335.187 24.2103 330.636 19.4171 324.144 19.4171C317.713 19.4171 313.163 24.2103 313.163 31.2484Z" fill="black"/>
<path d="M351.43 50.9672V2.42864H360.895V50.9672H351.43Z" fill="black"/>
<path d="M386.403 51.6346C375.724 51.6346 367.533 43.3831 367.533 31.1877C367.533 19.0531 375.724 10.8622 386.403 10.8622C391.681 10.8622 396.05 12.9251 399.023 16.4442V11.5296H408.366V50.9672H399.023V45.992C396.05 49.5717 391.681 51.6346 386.403 51.6346ZM377.18 31.1877C377.18 38.2865 381.731 43.019 388.162 43.019C394.594 43.019 399.144 38.2865 399.144 31.1877C399.144 24.1497 394.594 19.4778 388.162 19.4778C381.731 19.4778 377.18 24.1497 377.18 31.1877Z" fill="black"/>
<path d="M417.405 50.9672V11.5296H426.809V16.5655C427.78 14.1992 431.42 10.8622 437.67 10.8622C446.649 10.8622 453.566 17.779 453.566 28.0327V50.9672H444.101V28.2148C444.101 22.8755 440.643 19.2958 435.485 19.2958C430.328 19.2958 426.87 22.8755 426.87 28.2148V50.9672H417.405Z" fill="black"/>
<path d="M477.855 51.6346C467.177 51.6346 458.986 43.3831 458.986 31.1877C458.986 19.0531 467.177 10.8622 477.855 10.8622C483.134 10.8622 487.502 12.9251 490.475 16.4442V11.5296H499.819V50.9672H490.475V45.992C487.502 49.5717 483.134 51.6346 477.855 51.6346ZM468.633 31.1877C468.633 38.2865 473.183 43.019 479.615 43.019C486.046 43.019 490.597 38.2865 490.597 31.1877C490.597 24.1497 486.046 19.4778 479.615 19.4778C473.183 19.4778 468.633 24.1497 468.633 31.1877Z" fill="black"/>
<path d="M304.404 178.032C281.376 178.032 263.713 160.238 263.713 133.94C263.713 107.772 281.376 90.1088 304.404 90.1088C315.787 90.1088 325.207 94.5573 331.618 102.146V91.548H351.767V176.593H331.618V165.864C325.207 173.584 315.787 178.032 304.404 178.032ZM284.516 133.94C284.516 149.248 294.329 159.453 308.198 159.453C322.067 159.453 331.88 149.248 331.88 133.94C331.88 118.762 322.067 108.688 308.198 108.688C294.329 108.688 284.516 118.762 284.516 133.94Z" fill="black"/>
<path d="M371.258 202.761V91.548H391.276V102.146C397.687 94.5573 407.108 90.1088 418.491 90.1088C441.518 90.1088 459.181 107.903 459.181 134.071C459.181 160.369 441.518 178.032 418.491 178.032C407.239 178.032 397.949 173.715 391.538 166.257V202.761H371.258ZM391.015 134.071C391.015 149.379 400.828 159.453 414.696 159.453C428.565 159.453 438.378 149.379 438.378 134.071C438.378 118.893 428.565 108.688 414.696 108.688C400.828 108.688 391.015 118.893 391.015 134.071Z" fill="black"/>
<path d="M473.442 202.761V91.548H493.46V102.146C499.871 94.5573 509.292 90.1088 520.675 90.1088C543.702 90.1088 561.365 107.903 561.365 134.071C561.365 160.369 543.702 178.032 520.675 178.032C509.422 178.032 500.133 173.715 493.722 166.257V202.761H473.442ZM493.198 134.071C493.198 149.379 503.011 159.453 516.88 159.453C530.749 159.453 540.562 149.379 540.562 134.071C540.562 118.893 530.749 108.688 516.88 108.688C503.011 108.688 493.198 118.893 493.198 134.071Z" fill="black"/>
<path d="M603.046 176.593V71.9222H623.456V125.174L652.895 91.548H678.278L642.559 131.846L680.894 176.593H655.381L623.456 139.173V176.593H603.046Z" fill="black"/>
<path d="M689.897 176.593V102.8H710.308V176.593H689.897ZM689.897 90.2396V71.9222H710.308V90.2396H689.897Z" fill="black"/>
<path d="M737.706 176.593V109.865H722.005V91.548H737.706V71.9222H758.117V91.548H773.686V109.865H758.117V176.593H737.706Z" fill="black"/>
</svg>
